<svg viewBox="0 0 6.3499999 6.3500002">
  <g transform="translate(0 -290.65)">
    <path id="circle2657"
      d="m2.6524684 290.92032c-1.3119948 0-2.38280058 1.06874-2.38280058 2.38073 0 1.312 1.07080578 2.38074 2.38280058 2.38074.5606521 0 1.0762086-.19652 1.4836299-.52245l1.4851804 1.48518a.26460982.26460982 0 1 0 .3731048-.37466l-1.483114-1.48518c.3260699-.40746.5224489-.92285.5224489-1.48363 0-1.31199-1.0692553-2.38073-2.38125-2.38073zm0 .52917c1.0260119 0 1.8515674.82555 1.8515674 1.85156s-.8255555 1.85157-1.8515674 1.85157-1.85311797-.82556-1.85311797-1.85157.82710607-1.85156 1.85311797-1.85156z"
      font-variant-ligatures="normal" font-variant-position="normal" font-variant-caps="normal"
      font-variant-numeric="normal" font-variant-alternates="normal" font-feature-settings="normal" text-indent="0"
      text-align="start" text-decoration-line="none" text-decoration-style="solid" text-decoration-color="rgb(0,0,0)"
      text-transform="none" text-orientation="mixed" white-space="normal" shape-padding="0" isolation="auto"
      mix-blend-mode="normal" solid-color="rgb(0,0,0)" solid-opacity="1" vector-effect="none"
      paint-order="stroke fill markers"></path>
  </g>
</svg>
