<svg viewBox="0 0 32 32">
  <g xmlns="http://www.w3.org/2000/svg" fill="rgb(0,0,0)">
    <path d="m20 9h4.51715a.2.2 0 0 0 .14142-.34143l-5.31714-5.3172a.2.2 0 0 0 -.34143.14142v4.51721a1 1 0 0 0 1 1z">
    </path>
    <path
      d="m25 11h-5a3 3 0 0 1 -3-3v-4.99744a.99708.99708 0 0 0 -.99609-1c-2.34234-.00122-8.00391-.00256-8.00391-.00256a2 2 0 0 0 -2 2v24a2 2 0 0 0 2 2h16a2 2 0 0 0 2-2v-16a1 1 0 0 0 -1-1zm-6 14h-9a1 1 0 0 1 0-2h9a1 1 0 1 1 0 2zm3-4h-12a1 1 0 0 1 0-2h12a1 1 0 1 1 0 2zm0-4h-12a1 1 0 0 1 0-2h12a1 1 0 1 1 0 2z">
    </path>
  </g>
</svg>
