<svg viewBox="0 0 24 24">
  <g>
    <g transform="translate(0 -290.65)">
      <path
        d="m8.902 292.652c-.512.051-.901.482-.9.996v3.006h-4c-.034-.002-.069-.002-.104 0h-.902c-.032-.001-.064-.001-.096 0-.552.038-.968.517-.929 1.069.037.535.489.945 1.025.931h.139l1.877 13.139c.071.492.493.858.99.857h11.994c.5.004.927-.362.998-.857l1.869-13.139h.139c.552-.012.99-.469.979-1.021-.012-.536-.443-.967-.979-.979h-1.004-4.002v-3.006c-.002-.549-.447-.994-.996-.996h-6.002c-.032-.002-.064-.002-.096 0zm1.1 2h4.002v2.002h-4.002zm5.387 4.002h3.457l-1.713 11.994h-10.268l-1.713-11.994h9.459zm-6.399 1.978c-.034.001-.068.003-.102.008-.512.058-.896.496-.887 1.012v6.002c-.012.552.426 1.01.978 1.022s1.01-.426 1.022-.978c0-.015 0-.03 0-.044v-6.002c.01-.552-.43-1.008-.982-1.017-.01 0-.02 0-.029 0zm2.998 0c-.035.001-.069.003-.104.008-.512.058-.896.496-.887 1.012v6.002c0 .553.449 1.001 1.001 1 .552 0 1-.448 1-1v-6.002c.01-.552-.43-1.008-.982-1.017-.01 0-.02 0-.029 0zm2.996 0c-.034.001-.068.003-.102.008-.509.062-.889.499-.879 1.012v6.002c-.049.55.357 1.036.907 1.085s1.036-.357 1.086-.907c.005-.06.005-.119 0-.179v-6.002c.01-.552-.43-1.008-.982-1.017-.01 0-.02 0-.029 0z">
      </path>
    </g>
  </g>
</svg>
